<svg xmlns="http://www.w3.org/2000/svg" viewBox="0 0 900 600">
<defs><linearGradient id="g" x1="0" x2="1"><stop stop-color="#063b36"/><stop offset="1" stop-color="#0b6d64"/></linearGradient></defs>
<rect width="900" height="600" fill="url(#g)"/><rect x="85" y="70" width="730" height="460" rx="18" fill="#eaf4f1"/>
<rect x="85" y="70" width="730" height="62" rx="18" fill="#d7e8e4"/><circle cx="120" cy="101" r="8" fill="#7aa39e"/><circle cx="147" cy="101" r="8" fill="#7aa39e"/><circle cx="174" cy="101" r="8" fill="#7aa39e"/>
<rect x="125" y="170" width="180" height="260" rx="12" fill="#fff"/><rect x="335" y="170" width="180" height="260" rx="12" fill="#fff"/><rect x="545" y="170" width="180" height="260" rx="12" fill="#fff"/>
<rect x="145" y="190" width="140" height="110" rx="8" fill="#b5d8d2"/><rect x="355" y="190" width="140" height="110" rx="8" fill="#9ccac3"/><rect x="565" y="190" width="140" height="110" rx="8" fill="#c1dfda"/>
<rect x="145" y="325" width="90" height="10" rx="5" fill="#0a5d57"/><rect x="355" y="325" width="90" height="10" rx="5" fill="#0a5d57"/><rect x="565" y="325" width="90" height="10" rx="5" fill="#0a5d57"/>
<rect x="145" y="365" width="125" height="34" rx="17" fill="#0d7168"/><rect x="355" y="365" width="125" height="34" rx="17" fill="#0d7168"/><rect x="565" y="365" width="125" height="34" rx="17" fill="#0d7168"/>
<text x="450" y="112" text-anchor="middle" font-family="Arial" font-size="22" fill="#073a35">E-COMMERCE PLATFORM</text></svg>